<mxfile host="Electron" modified="2023-06-04T09:20:57.982Z" agent="Mozilla/5.0 (Windows NT 10.0; Win64; x64) AppleWebKit/537.36 (KHTML, like Gecko) draw.io/21.2.8 Chrome/112.0.5615.165 Electron/24.2.0 Safari/537.36" etag="eNlRsNddvK8MHaX0q7U_" version="21.2.8" type="device">
  <diagram name="Page-1" id="5d7acffa-a066-3a61-03fe-96351882024d">
    <mxGraphModel dx="1219" dy="722" grid="1" gridSize="10" guides="1" tooltips="1" connect="1" arrows="1" fold="1" page="1" pageScale="1" pageWidth="1100" pageHeight="850" background="#ffffff" math="0" shadow="0">
      <root>
        <mxCell id="0" />
        <mxCell id="1" parent="0" />
        <mxCell id="iiY27Es0LYnrTPNcv6zx-1" value="考生" style="rounded=0;whiteSpace=wrap;html=1;fontSize=18;" vertex="1" parent="1">
          <mxGeometry x="120" y="230" width="120" height="60" as="geometry" />
        </mxCell>
        <mxCell id="iiY27Es0LYnrTPNcv6zx-2" value="教师" style="rounded=0;whiteSpace=wrap;html=1;fontSize=18;" vertex="1" parent="1">
          <mxGeometry x="110" y="510" width="120" height="60" as="geometry" />
        </mxCell>
        <mxCell id="iiY27Es0LYnrTPNcv6zx-3" value="考试管理人员" style="rounded=0;whiteSpace=wrap;html=1;fontSize=18;" vertex="1" parent="1">
          <mxGeometry x="840" y="400" width="120" height="60" as="geometry" />
        </mxCell>
        <mxCell id="iiY27Es0LYnrTPNcv6zx-5" value="英语六级考试报考系统" style="ellipse;whiteSpace=wrap;html=1;fontSize=18;" vertex="1" parent="1">
          <mxGeometry x="445" y="350" width="210" height="100" as="geometry" />
        </mxCell>
        <mxCell id="iiY27Es0LYnrTPNcv6zx-8" value="" style="endArrow=classic;html=1;rounded=0;exitX=1;exitY=0.5;exitDx=0;exitDy=0;entryX=0;entryY=0;entryDx=0;entryDy=0;edgeStyle=orthogonalEdgeStyle;curved=1;" edge="1" parent="1" source="iiY27Es0LYnrTPNcv6zx-1" target="iiY27Es0LYnrTPNcv6zx-5">
          <mxGeometry width="50" height="50" relative="1" as="geometry">
            <mxPoint x="290" y="370" as="sourcePoint" />
            <mxPoint x="340" y="320" as="targetPoint" />
            <Array as="points">
              <mxPoint x="475" y="260" />
            </Array>
          </mxGeometry>
        </mxCell>
        <mxCell id="iiY27Es0LYnrTPNcv6zx-9" value="&lt;font style=&quot;font-size: 18px;&quot;&gt;报名信息、缴费记录&lt;/font&gt;" style="edgeLabel;html=1;align=center;verticalAlign=middle;resizable=0;points=[];" vertex="1" connectable="0" parent="iiY27Es0LYnrTPNcv6zx-8">
          <mxGeometry x="-0.1765" y="-11" relative="1" as="geometry">
            <mxPoint as="offset" />
          </mxGeometry>
        </mxCell>
        <mxCell id="iiY27Es0LYnrTPNcv6zx-10" value="" style="endArrow=classic;html=1;rounded=0;exitX=1;exitY=0.75;exitDx=0;exitDy=0;entryX=0.049;entryY=0.228;entryDx=0;entryDy=0;entryPerimeter=0;edgeStyle=orthogonalEdgeStyle;curved=1;" edge="1" parent="1" source="iiY27Es0LYnrTPNcv6zx-1" target="iiY27Es0LYnrTPNcv6zx-5">
          <mxGeometry width="50" height="50" relative="1" as="geometry">
            <mxPoint x="290" y="410" as="sourcePoint" />
            <mxPoint x="340" y="360" as="targetPoint" />
            <Array as="points">
              <mxPoint x="240" y="310" />
              <mxPoint x="455" y="310" />
            </Array>
          </mxGeometry>
        </mxCell>
        <mxCell id="iiY27Es0LYnrTPNcv6zx-11" value="考生作答" style="edgeLabel;html=1;align=center;verticalAlign=middle;resizable=0;points=[];fontSize=18;" vertex="1" connectable="0" parent="iiY27Es0LYnrTPNcv6zx-10">
          <mxGeometry x="0.1948" relative="1" as="geometry">
            <mxPoint as="offset" />
          </mxGeometry>
        </mxCell>
        <mxCell id="iiY27Es0LYnrTPNcv6zx-12" value="" style="endArrow=classic;html=1;rounded=0;entryX=0.75;entryY=1;entryDx=0;entryDy=0;exitX=0;exitY=0.5;exitDx=0;exitDy=0;edgeStyle=orthogonalEdgeStyle;curved=1;" edge="1" parent="1" source="iiY27Es0LYnrTPNcv6zx-5" target="iiY27Es0LYnrTPNcv6zx-1">
          <mxGeometry width="50" height="50" relative="1" as="geometry">
            <mxPoint x="270" y="460" as="sourcePoint" />
            <mxPoint x="320" y="410" as="targetPoint" />
          </mxGeometry>
        </mxCell>
        <mxCell id="iiY27Es0LYnrTPNcv6zx-13" value="&lt;span style=&quot;font-size: 18px;&quot;&gt;考生成绩&lt;/span&gt;" style="edgeLabel;html=1;align=center;verticalAlign=middle;resizable=0;points=[];" vertex="1" connectable="0" parent="iiY27Es0LYnrTPNcv6zx-12">
          <mxGeometry x="0.0038" y="-24" relative="1" as="geometry">
            <mxPoint as="offset" />
          </mxGeometry>
        </mxCell>
        <mxCell id="iiY27Es0LYnrTPNcv6zx-14" value="" style="endArrow=classic;html=1;rounded=0;exitX=0;exitY=1;exitDx=0;exitDy=0;entryX=1;entryY=0.5;entryDx=0;entryDy=0;edgeStyle=orthogonalEdgeStyle;curved=1;" edge="1" parent="1" source="iiY27Es0LYnrTPNcv6zx-5" target="iiY27Es0LYnrTPNcv6zx-2">
          <mxGeometry width="50" height="50" relative="1" as="geometry">
            <mxPoint x="480" y="610" as="sourcePoint" />
            <mxPoint x="530" y="560" as="targetPoint" />
            <Array as="points">
              <mxPoint x="475" y="540" />
            </Array>
          </mxGeometry>
        </mxCell>
        <mxCell id="iiY27Es0LYnrTPNcv6zx-15" value="考生作答" style="edgeLabel;html=1;align=center;verticalAlign=middle;resizable=0;points=[];fontSize=18;" vertex="1" connectable="0" parent="iiY27Es0LYnrTPNcv6zx-14">
          <mxGeometry x="0.134" y="4" relative="1" as="geometry">
            <mxPoint as="offset" />
          </mxGeometry>
        </mxCell>
        <mxCell id="iiY27Es0LYnrTPNcv6zx-19" value="" style="endArrow=classic;html=1;rounded=0;entryX=0.103;entryY=0.831;entryDx=0;entryDy=0;entryPerimeter=0;" edge="1" parent="1" target="iiY27Es0LYnrTPNcv6zx-5">
          <mxGeometry width="50" height="50" relative="1" as="geometry">
            <mxPoint x="230" y="510" as="sourcePoint" />
            <mxPoint x="280" y="460" as="targetPoint" />
          </mxGeometry>
        </mxCell>
        <mxCell id="iiY27Es0LYnrTPNcv6zx-20" value="&lt;span style=&quot;font-size: 18px;&quot;&gt;考生成绩&lt;/span&gt;" style="edgeLabel;html=1;align=center;verticalAlign=middle;resizable=0;points=[];" vertex="1" connectable="0" parent="iiY27Es0LYnrTPNcv6zx-19">
          <mxGeometry x="0.1331" y="-2" relative="1" as="geometry">
            <mxPoint as="offset" />
          </mxGeometry>
        </mxCell>
        <mxCell id="iiY27Es0LYnrTPNcv6zx-21" value="" style="endArrow=classic;html=1;rounded=0;entryX=0.004;entryY=0.68;entryDx=0;entryDy=0;entryPerimeter=0;edgeStyle=orthogonalEdgeStyle;curved=1;" edge="1" parent="1" target="iiY27Es0LYnrTPNcv6zx-5">
          <mxGeometry width="50" height="50" relative="1" as="geometry">
            <mxPoint x="190" y="510" as="sourcePoint" />
            <mxPoint x="240" y="460" as="targetPoint" />
            <Array as="points">
              <mxPoint x="190" y="418" />
            </Array>
          </mxGeometry>
        </mxCell>
        <mxCell id="iiY27Es0LYnrTPNcv6zx-22" value="&lt;font style=&quot;font-size: 18px;&quot;&gt;考试试题&lt;/font&gt;" style="edgeLabel;html=1;align=center;verticalAlign=middle;resizable=0;points=[];" vertex="1" connectable="0" parent="iiY27Es0LYnrTPNcv6zx-21">
          <mxGeometry x="0.074" y="-12" relative="1" as="geometry">
            <mxPoint as="offset" />
          </mxGeometry>
        </mxCell>
        <mxCell id="iiY27Es0LYnrTPNcv6zx-25" value="" style="endArrow=classic;html=1;rounded=0;entryX=0.889;entryY=1.047;entryDx=0;entryDy=0;entryPerimeter=0;exitX=0;exitY=0.5;exitDx=0;exitDy=0;edgeStyle=orthogonalEdgeStyle;curved=1;" edge="1" parent="1" source="iiY27Es0LYnrTPNcv6zx-5" target="iiY27Es0LYnrTPNcv6zx-1">
          <mxGeometry width="50" height="50" relative="1" as="geometry">
            <mxPoint x="445" y="390" as="sourcePoint" />
            <mxPoint x="495" y="340" as="targetPoint" />
            <Array as="points">
              <mxPoint x="445" y="350" />
              <mxPoint x="227" y="350" />
            </Array>
          </mxGeometry>
        </mxCell>
        <mxCell id="iiY27Es0LYnrTPNcv6zx-26" value="考试试卷" style="edgeLabel;html=1;align=center;verticalAlign=middle;resizable=0;points=[];fontSize=18;" vertex="1" connectable="0" parent="iiY27Es0LYnrTPNcv6zx-25">
          <mxGeometry x="0.0965" y="1" relative="1" as="geometry">
            <mxPoint as="offset" />
          </mxGeometry>
        </mxCell>
        <mxCell id="iiY27Es0LYnrTPNcv6zx-27" value="" style="endArrow=classic;startArrow=classic;html=1;rounded=0;exitX=1;exitY=0;exitDx=0;exitDy=0;entryX=0;entryY=0.25;entryDx=0;entryDy=0;edgeStyle=orthogonalEdgeStyle;curved=1;" edge="1" parent="1" source="iiY27Es0LYnrTPNcv6zx-5" target="iiY27Es0LYnrTPNcv6zx-3">
          <mxGeometry width="50" height="50" relative="1" as="geometry">
            <mxPoint x="730" y="370" as="sourcePoint" />
            <mxPoint x="780" y="320" as="targetPoint" />
            <Array as="points">
              <mxPoint x="840" y="365" />
            </Array>
          </mxGeometry>
        </mxCell>
        <mxCell id="iiY27Es0LYnrTPNcv6zx-28" value="考生信息" style="edgeLabel;html=1;align=center;verticalAlign=middle;resizable=0;points=[];fontSize=18;" vertex="1" connectable="0" parent="iiY27Es0LYnrTPNcv6zx-27">
          <mxGeometry x="0.3129" relative="1" as="geometry">
            <mxPoint as="offset" />
          </mxGeometry>
        </mxCell>
        <mxCell id="iiY27Es0LYnrTPNcv6zx-29" value="" style="endArrow=classic;startArrow=classic;html=1;rounded=0;exitX=1;exitY=0;exitDx=0;exitDy=0;entryX=0;entryY=0.5;entryDx=0;entryDy=0;" edge="1" parent="1" target="iiY27Es0LYnrTPNcv6zx-3">
          <mxGeometry width="50" height="50" relative="1" as="geometry">
            <mxPoint x="655" y="405" as="sourcePoint" />
            <mxPoint x="870" y="455" as="targetPoint" />
          </mxGeometry>
        </mxCell>
        <mxCell id="iiY27Es0LYnrTPNcv6zx-30" value="教师信息" style="edgeLabel;html=1;align=center;verticalAlign=middle;resizable=0;points=[];fontSize=18;" vertex="1" connectable="0" parent="iiY27Es0LYnrTPNcv6zx-29">
          <mxGeometry x="0.3129" relative="1" as="geometry">
            <mxPoint as="offset" />
          </mxGeometry>
        </mxCell>
        <mxCell id="iiY27Es0LYnrTPNcv6zx-33" value="" style="endArrow=classic;startArrow=classic;html=1;rounded=0;exitX=1;exitY=1;exitDx=0;exitDy=0;entryX=0;entryY=0.75;entryDx=0;entryDy=0;edgeStyle=orthogonalEdgeStyle;curved=1;" edge="1" parent="1" source="iiY27Es0LYnrTPNcv6zx-5" target="iiY27Es0LYnrTPNcv6zx-3">
          <mxGeometry width="50" height="50" relative="1" as="geometry">
            <mxPoint x="690" y="580" as="sourcePoint" />
            <mxPoint x="740" y="530" as="targetPoint" />
            <Array as="points">
              <mxPoint x="625" y="480" />
              <mxPoint x="840" y="480" />
            </Array>
          </mxGeometry>
        </mxCell>
        <mxCell id="iiY27Es0LYnrTPNcv6zx-34" value="考试信息" style="edgeLabel;html=1;align=center;verticalAlign=middle;resizable=0;points=[];fontSize=18;" vertex="1" connectable="0" parent="iiY27Es0LYnrTPNcv6zx-33">
          <mxGeometry x="-0.0979" y="-1" relative="1" as="geometry">
            <mxPoint as="offset" />
          </mxGeometry>
        </mxCell>
      </root>
    </mxGraphModel>
  </diagram>
</mxfile>
